<svg width="40" height="40" fill="none" xmlns="http://www.w3.org/2000/svg"><g clip-path="url(#clip0)" fill="#D7B399"><path d="M9.339 14.723L4.072 19.99l5.267 5.267 5.266-5.267-5.266-5.266zM19.994 4.085l-5.266 5.267 5.266 5.267 5.267-5.267-5.267-5.267zM19.991 25.394l-5.266 5.266 5.266 5.267 5.267-5.267-5.267-5.266zM30.647 14.727l-5.267 5.266 5.267 5.267 5.267-5.267-5.267-5.266z"/><path d="M28.61 12.687l-5.266 5.266 2.039 2.04 5.266-5.267-2.039-2.04zM17.955 23.353l-5.267 5.267 2.04 2.039 5.266-5.267-2.04-2.039zM25.259 9.353l-5.267 5.267 2.04 2.039 5.266-5.267-2.04-2.039zM14.618 20.005L9.35 25.272l2.04 2.039 5.266-5.267-2.04-2.039zM11.379 12.686l-2.04 2.04 5.267 5.266 2.04-2.039-5.267-5.267zM14.727 9.35l-2.04 2.039 5.267 5.266 2.04-2.039-5.267-5.266zM25.38 19.99l-2.04 2.04 5.267 5.266 2.04-2.039-5.267-5.267zM22.046 23.342l-2.04 2.04 5.267 5.266 2.04-2.04-5.267-5.266zM27.303 32.697l-2.033-2.033-5.27 5.27-5.27-5.27-2.033 2.033L20 40l7.303-7.303zM9.336 14.73l-2.033-2.033L0 20l7.303 7.303 2.033-2.033L4.066 20l5.27-5.27zM32.697 12.697l-2.033 2.033 5.27 5.27-5.27 5.27 2.033 2.033L40 20l-7.303-7.303zM25.27 9.336l2.033-2.033L20 0l-7.303 7.303 2.033 2.033L20 4.066l5.27 5.27z"/></g><defs><clipPath id="clip0"><path fill="#fff" d="M0 0h40v40H0z"/></clipPath></defs></svg>